<?xml version="1.0" standalone="no"?>
<!DOCTYPE svg PUBLIC "-//W3C//DTD SVG 20010904//EN"
 "http://www.w3.org/TR/2001/REC-SVG-20010904/DTD/svg10.dtd">
<svg version="1.0" xmlns="http://www.w3.org/2000/svg"
 width="700.000000pt" height="700.000000pt" viewBox="0 0 700.000000 700.000000"
 preserveAspectRatio="xMidYMid meet">
<metadata>
Created by potrace 1.11, written by Peter Selinger 2001-2013
</metadata>
<g transform="translate(0.000000,700.000000) scale(0.100000,-0.100000)"
fill="#000000" stroke="none">
<path d="M0 6710 c0 -269 1 -290 18 -291 57 -3 6959 -4 6970 -1 9 3 12 71 12
293 l0 289 -3500 0 -3500 0 0 -290z"/>
<path d="M10 5832 c-6 -2 -10 -109 -10 -293 l0 -289 145 0 145 0 0 -1750 0
-1750 -145 0 -145 0 0 -292 0 -293 873 1 872 0 3 292 2 292 -145 0 -145 0 0
33 c-1 35 -1 3174 0 3355 l0 112 145 0 145 0 0 293 0 292 -865 0 c-476 0 -869
-1 -875 -3z"/>
<path d="M2637 5830 c-10 -4 -12 -73 -12 -290 l0 -285 146 -5 145 -5 0 -1747
0 -1747 -145 -3 -146 -3 0 -287 c0 -249 2 -287 15 -290 13 -3 1696 -2 1725 1
7 1 10 102 10 288 l0 288 -145 5 -145 5 -1 1748 0 1747 143 0 c79 0 144 3 144
8 7 42 2 565 -6 570 -11 7 -1710 9 -1728 2z"/>
<path d="M5260 5832 c-6 -2 -10 -109 -10 -293 l0 -289 145 0 145 0 0 -37 c1
-46 1 -3301 0 -3395 l0 -68 -145 0 -145 0 2 -292 3 -292 870 0 870 0 3 292 2
292 -145 0 -145 0 0 1750 0 1750 145 0 145 0 0 290 c0 160 -3 290 -7 291 -25
3 -1725 3 -1733 1z"/>
<path d="M10 582 c-6 -2 -10 -109 -10 -293 l0 -289 3500 0 3500 0 0 290 c0
225 -3 290 -12 291 -40 3 -6970 3 -6978 1z"/>
</g>
</svg>
